<svg width="105" height="87" viewBox="0 0 105 87" fill="none" xmlns="http://www.w3.org/2000/svg">
<g filter="url(#filter0_d_303_2)">
<rect x="10" y="6" width="85" height="67" rx="9" fill="white"/>
</g>
<path d="M27 44H55" stroke="#ADADAD" stroke-width="5" stroke-linecap="round" stroke-linejoin="round"/>
<path d="M27 58H67" stroke="#ADADAD" stroke-width="5" stroke-linecap="round" stroke-linejoin="round"/>
<path fill-rule="evenodd" clip-rule="evenodd" d="M35.553 19.3811C35.4758 18.8113 35.4741 18.1986 35.6076 17.6855C35.7144 17.2753 35.8849 17.0106 36.0913 16.8433C36.2884 16.6836 36.6562 16.5 37.3767 16.5C38.1318 16.5 38.5463 16.6733 38.7783 16.8354C39.0091 16.9966 39.1843 17.2338 39.309 17.5823C39.4708 18.0346 39.5163 18.5865 39.4951 19.1395C39.0108 19.0479 38.511 19 38 19C37.1465 19 36.3243 19.1336 35.553 19.3811ZM32.8075 20.9139C32.5124 19.8167 32.3439 18.315 32.7043 16.9299C32.9279 16.0708 33.3767 15.1817 34.2025 14.5125C35.0377 13.8357 36.1152 13.5 37.3767 13.5C38.6035 13.5 39.6549 13.7882 40.4964 14.3761C41.3392 14.9649 41.8454 15.7662 42.1336 16.5715C42.6016 17.8795 42.5369 19.3119 42.3987 20.3168C44.5683 21.7476 46 24.2066 46 27C46 31.4183 42.4183 35 38 35C33.5817 35 30 31.4183 30 27C30 24.5634 31.0893 22.3812 32.8075 20.9139ZM43 27C43 29.7614 40.7614 32 38 32C35.2386 32 33 29.7614 33 27C33 24.2386 35.2386 22 38 22C40.7614 22 43 24.2386 43 27Z" fill="url(#paint0_linear_303_2)" fill-opacity="0.5"/>
<path d="M28.5001 21.5C27.8334 19.5 27.5 15 31.5 15C35.5 15 35.3334 19 35 21" stroke="url(#paint1_linear_303_2)" stroke-width="3"/>
<path d="M38.5 27C38.5 30.5899 35.5899 33.5 32 33.5C28.4101 33.5 25.5 30.5899 25.5 27C25.5 23.4101 28.4101 20.5 32 20.5C35.5899 20.5 38.5 23.4101 38.5 27Z" stroke="url(#paint2_linear_303_2)" stroke-width="3"/>
<defs>
<filter id="filter0_d_303_2" x="0" y="0" width="105" height="87" filterUnits="userSpaceOnUse" color-interpolation-filters="sRGB">
<feFlood flood-opacity="0" result="BackgroundImageFix"/>
<feColorMatrix in="SourceAlpha" type="matrix" values="0 0 0 0 0 0 0 0 0 0 0 0 0 0 0 0 0 0 127 0" result="hardAlpha"/>
<feOffset dy="4"/>
<feGaussianBlur stdDeviation="5"/>
<feComposite in2="hardAlpha" operator="out"/>
<feColorMatrix type="matrix" values="0 0 0 0 0 0 0 0 0 0 0 0 0 0 0 0 0 0 0.1 0"/>
<feBlend mode="normal" in2="BackgroundImageFix" result="effect1_dropShadow_303_2"/>
<feBlend mode="normal" in="SourceGraphic" in2="effect1_dropShadow_303_2" result="shape"/>
</filter>
<linearGradient id="paint0_linear_303_2" x1="38" y1="13.5" x2="38" y2="35" gradientUnits="userSpaceOnUse">
<stop stop-color="#7461CB"/>
<stop offset="1" stop-color="#80C4EA"/>
</linearGradient>
<linearGradient id="paint1_linear_303_2" x1="32" y1="18.5" x2="32" y2="5" gradientUnits="userSpaceOnUse">
<stop stop-color="#7461CB"/>
<stop offset="1" stop-color="#80C4EA"/>
</linearGradient>
<linearGradient id="paint2_linear_303_2" x1="32" y1="19" x2="32" y2="35" gradientUnits="userSpaceOnUse">
<stop stop-color="#7461CB"/>
<stop offset="1" stop-color="#80C4EA"/>
</linearGradient>
</defs>
</svg>
